<svg width="103" height="103" viewBox="0 0 103 103" fill="none" xmlns="http://www.w3.org/2000/svg">
<g id="Iconly/Bold/Tick Square" filter="url(#filter0_d_40_554)">
<g id="Tick Square">
<path id="Tick Square_2" fill-rule="evenodd" clip-rule="evenodd" d="M45.56 38H57.12C61.64 38 64.6667 41.1733 64.6667 45.8933V56.788C64.6667 61.4933 61.64 64.6667 57.12 64.6667H45.56C41.04 64.6667 38 61.4933 38 56.788V45.8933C38 41.1733 41.04 38 45.56 38ZM50.5733 55.32L56.9067 48.9867C57.36 48.5333 57.36 47.8 56.9067 47.3333C56.4533 46.88 55.7067 46.88 55.2533 47.3333L49.7467 52.84L47.4133 50.5067C46.96 50.0533 46.2133 50.0533 45.76 50.5067C45.3067 50.96 45.3067 51.6933 45.76 52.16L48.9333 55.32C49.16 55.5467 49.4533 55.6533 49.7467 55.6533C50.0533 55.6533 50.3467 55.5467 50.5733 55.32Z" fill="#69B99D"/>
</g>
</g>
<defs>
<filter id="filter0_d_40_554" x="-2.66675" y="-2.6665" width="108" height="108" filterUnits="userSpaceOnUse" color-interpolation-filters="sRGB">
<feFlood flood-opacity="0" result="BackgroundImageFix"/>
<feColorMatrix in="SourceAlpha" type="matrix" values="0 0 0 0 0 0 0 0 0 0 0 0 0 0 0 0 0 0 127 0" result="hardAlpha"/>
<feOffset/>
<feGaussianBlur stdDeviation="19"/>
<feColorMatrix type="matrix" values="0 0 0 0 0.411765 0 0 0 0 0.72549 0 0 0 0 0.615686 0 0 0 0.32 0"/>
<feBlend mode="normal" in2="BackgroundImageFix" result="effect1_dropShadow_40_554"/>
<feBlend mode="normal" in="SourceGraphic" in2="effect1_dropShadow_40_554" result="shape"/>
</filter>
</defs>
</svg>
